<?xml version="1.0" encoding="UTF-8"?>
<svg id="Layer_1" xmlns="http://www.w3.org/2000/svg" version="1.1" viewBox="0 0 377.2 146.71">
  <!-- Generator: Adobe Illustrator 29.3.1, SVG Export Plug-In . SVG Version: 2.1.0 Build 151)  -->
  <defs>
    <style>
      .st0 {
        fill-rule: evenodd;
      }

      .st0, .st1 {
        fill: #fff;
      }
    </style>
  </defs>
  <path class="st0" d="M129.99,51.26v36.32h3.83v-36.32h-3.83ZM126.49,54.08l-13.81,33.5h13.93v-33.48l-.12-.02ZM108.42,51.26l4.85,25.73-1.49,3.19-4.83-25.46h-.17v32.86h3.89l15.01-36.32h-17.26Z"/>
  <path class="st0" d="M138.27,46.82h-35.93v45.2h35.93v-45.2ZM104.28,90.08v-41.33h32.05v41.33h-32.05Z"/>
  <path class="st1" d="M237.52,63.53v17.03c0,.44.16.57.57.57h1.45c.42,0,.57-.13.57-.57v-12.39l10.54,12.44c.55.62.8.81,1.09.81.34,0,.52-.26.52-.86v-17.03c0-.44-.16-.57-.57-.57h-1.45c-.42,0-.57.13-.57.57v12.39l-10.54-12.44c-.52-.62-.78-.81-1.06-.81-.36,0-.55.26-.55.86M224.68,78.95c-3.74,0-6.62-2.88-6.62-6.86s2.93-6.96,6.67-6.96,6.67,2.83,6.67,6.91-2.99,6.91-6.73,6.91ZM215.36,72.12c0,5.35,4,9.3,9.3,9.3s9.45-4.02,9.45-9.4-4-9.35-9.35-9.35-9.4,4.08-9.4,9.45ZM213.77,78.15l-.75-1.04c-.13-.16-.23-.26-.39-.26-.13,0-.26.08-.44.23-1.43,1.17-3.17,1.87-5.22,1.87-3.77,0-6.65-2.96-6.65-6.88s2.93-6.93,6.65-6.93c1.97,0,3.74.75,5.14,1.84.18.13.31.21.44.21.16,0,.29-.1.42-.29l.75-1.01c.1-.16.16-.29.16-.42s-.08-.26-.26-.39c-1.69-1.43-4-2.41-6.6-2.41-5.35,0-9.4,4.02-9.4,9.45s4.13,9.3,9.24,9.3c2.6,0,4.93-.93,6.73-2.44.21-.18.31-.31.31-.47,0-.1-.03-.23-.13-.36ZM183.18,77.21l-.78,1.09c-.13.18-.18.31-.18.44s.08.26.29.44c1.61,1.3,3.69,2.23,6.15,2.23,3.89,0,6.67-2.1,6.67-5.4,0-2.88-1.84-4.21-5.69-5.19-2.67-.68-4-1.3-4-3.01s1.38-2.7,3.38-2.7c1.74,0,3.19.73,4.44,1.64.18.13.34.18.44.18.16,0,.26-.08.39-.29l.75-1.12c.1-.18.18-.31.18-.42,0-.13-.08-.23-.26-.39-1.61-1.25-3.56-2.05-5.92-2.05-3.43,0-6.13,1.95-6.13,5.3,0,3.14,2.16,4.34,5.61,5.22,3.01.78,4.1,1.4,4.1,3.01s-1.51,2.78-3.92,2.78c-1.82,0-3.43-.8-4.75-1.84-.16-.13-.29-.21-.39-.21-.13,0-.26.1-.39.29ZM142.99,63.55v17.01c0,.44.16.57.57.57h1.45c.42,0,.57-.13.57-.57v-12.1l5.19,6.39c.44.57.62.73.91.73s.47-.16.91-.73l5.19-6.39v12.1c0,.44.16.57.57.57h1.45c.42,0,.57-.13.57-.57v-17.01c0-.55-.13-.86-.52-.86-.31,0-.52.23-.99.75l-7.14,8.7-7.24-8.7c-.44-.52-.68-.75-.99-.75-.39,0-.52.31-.52.86Z"/>
  <path class="st1" d="M162.77,80.97h3l5.73-13.35,5.65,13.35h3l-7.38-17.44c-.13-.27-.27-.46-.49-.63-.22-.15-.49-.22-.76-.22s-.53.07-.75.22c-.24.17-.42.36-.54.63l-7.45,17.44Z"/>
  <path class="st1" d="M251.67,88.29c0-.53-.15-.97-.45-1.32-.32-.38-.74-.57-1.27-.57s-.92.19-1.23.56c-.31.37-.47.82-.47,1.33s.16.97.48,1.33c.32.36.74.55,1.26.55s.93-.19,1.25-.56c.29-.35.43-.79.43-1.32M252.27,90.37c0,.74-.22,1.29-.66,1.67-.42.36-1,.54-1.75.54-1.07,0-1.8-.46-2.19-1.39l.62-.27c.31.7.87,1.05,1.68,1.05.47,0,.86-.14,1.17-.41.31-.27.47-.64.47-1.1v-.62c-.35.62-.92.93-1.71.93-.69,0-1.26-.23-1.7-.7-.44-.46-.66-1.04-.66-1.73s.22-1.28.65-1.77c.43-.49.99-.73,1.68-.73.36,0,.7.08,1.01.23.32.17.56.41.73.72v-.81h.66v4.39ZM246.93,90.61h-.67v-2.8c0-.93-.37-1.39-1.12-1.39-.44,0-.78.17-1.02.5-.21.3-.32.68-.32,1.12v2.57h-.69v-4.65h.69v.83c.34-.65.86-.97,1.54-.97,1.06,0,1.59.62,1.59,1.85v2.94ZM242.34,90.61h-.69v-4.64h.69v4.64ZM242.49,84.66c0,.13-.05.25-.15.35-.1.1-.21.15-.35.15s-.26-.05-.36-.14c-.1-.1-.15-.21-.15-.35s.05-.25.15-.35c.1-.1.22-.15.36-.15s.25.05.35.15c.1.1.15.22.15.35ZM241.06,90.6c-.3.08-.57.12-.82.12-.5,0-.84-.16-1.03-.48-.14-.24-.21-.61-.21-1.12v-2.57h-.66v-.59h.66v-1.29h.67v1.29h1.3v.59h-1.3v2.68c0,.59.23.88.68.88.17,0,.35-.04.53-.12l.17.6ZM237.75,90.61h-.69v-2.84c0-.88-.37-1.32-1.11-1.32-.44,0-.78.17-1.01.51-.21.29-.31.67-.31,1.12v2.53h-.69v-6.92h.69v3c.37-.58.87-.86,1.51-.86,1.08,0,1.62.64,1.62,1.92v2.86ZM232.32,88.29c0-.53-.15-.97-.45-1.32-.32-.38-.74-.57-1.27-.57s-.92.19-1.23.56c-.31.37-.47.82-.47,1.33s.16.97.48,1.33c.32.36.74.55,1.26.55s.93-.19,1.25-.56c.29-.35.43-.79.43-1.32ZM232.92,90.37c0,.74-.22,1.29-.66,1.67-.42.36-1,.54-1.75.54-1.07,0-1.8-.46-2.19-1.39l.62-.27c.31.7.87,1.05,1.68,1.05.47,0,.86-.14,1.17-.41.31-.27.47-.64.47-1.1v-.62c-.35.62-.92.93-1.71.93-.69,0-1.26-.23-1.7-.7s-.66-1.04-.66-1.73.22-1.28.65-1.77c.43-.49.99-.73,1.68-.73.36,0,.7.08,1.01.23.32.17.56.41.73.72v-.81h.66v4.39ZM227.59,90.61h-.69v-4.64h.69v4.64ZM227.75,84.66c0,.13-.05.25-.15.35-.1.1-.21.15-.35.15s-.26-.05-.36-.14c-.1-.1-.15-.21-.15-.35s.05-.25.15-.35c.1-.1.22-.15.36-.15s.25.05.35.15c.1.1.15.22.15.35ZM225.89,90.61h-.69v-6.92h.69v6.92ZM220.25,87.99c-.01-.46-.16-.84-.44-1.13-.28-.29-.65-.44-1.1-.44s-.83.15-1.12.44c-.28.29-.46.67-.53,1.14h3.2ZM221,88.23c0,.08,0,.2,0,.35h-3.93c.05.48.22.87.51,1.16.29.29.67.44,1.15.44.7,0,1.22-.35,1.55-1.05l.62.34c-.47.87-1.2,1.3-2.17,1.3-.72,0-1.29-.23-1.73-.69-.44-.46-.66-1.04-.66-1.76s.22-1.3.66-1.78c.44-.48,1.01-.72,1.71-.72s1.23.23,1.66.69c.43.46.64,1.03.64,1.71ZM216.12,85.96l-2.07,4.65h-.45l-2.06-4.65h.75l1.31,3.07c.12.28.19.54.23.81.04-.28.12-.55.23-.81l1.31-3.07h.75ZM211.15,90.61h-.69v-4.64h.69v4.64ZM211.3,84.66c0,.13-.05.25-.15.35-.1.1-.21.15-.35.15s-.26-.05-.36-.14c-.1-.1-.15-.21-.15-.35s.05-.25.15-.35c.1-.1.22-.15.36-.15s.25.05.35.15c.1.1.15.22.15.35ZM209.86,90.6c-.3.08-.57.12-.82.12-.5,0-.84-.16-1.03-.48-.14-.24-.21-.61-.21-1.12v-2.57h-.66v-.59h.66v-1.29h.67v1.29h1.3v.59h-1.3v2.68c0,.59.23.88.68.88.17,0,.35-.04.53-.12l.17.6ZM205.93,88.27c0-.51-.16-.94-.48-1.3-.32-.36-.73-.53-1.24-.53s-.92.18-1.23.55c-.32.37-.47.8-.47,1.3,0,.53.16.97.47,1.33.31.36.73.53,1.26.53s.93-.19,1.25-.56c.3-.36.45-.8.45-1.32ZM206.57,90.61h-.67v-.8c-.38.63-.97.95-1.75.95-.69,0-1.26-.24-1.69-.71-.44-.47-.66-1.06-.66-1.76s.22-1.25.66-1.74c.44-.49,1-.73,1.67-.73.78,0,1.37.32,1.77.96v-.83h.67v4.65ZM201.58,85.96l-2.07,4.65h-.45l-2.06-4.65h.75l1.31,3.07c.12.28.19.54.23.81.04-.28.12-.55.23-.81l1.31-3.07h.75ZM196.09,88.29c0-.52-.17-.97-.52-1.32-.35-.36-.78-.54-1.31-.54s-.96.18-1.31.54c-.35.36-.52.8-.52,1.32s.17.97.52,1.32c.34.35.78.53,1.31.53s.96-.18,1.31-.53c.35-.35.52-.79.52-1.32ZM196.78,88.29c0,.72-.24,1.31-.72,1.77-.48.46-1.08.7-1.8.7s-1.31-.23-1.79-.7c-.48-.46-.72-1.05-.72-1.77s.24-1.3.72-1.76c.48-.46,1.08-.7,1.79-.7s1.32.23,1.8.7c.48.46.72,1.05.72,1.76ZM191.15,90.61h-.67v-2.8c0-.93-.37-1.39-1.12-1.39-.44,0-.78.17-1.02.5-.21.3-.32.68-.32,1.12v2.57h-.69v-4.65h.69v.83c.34-.65.86-.97,1.54-.97,1.06,0,1.59.62,1.59,1.85v2.94ZM186.55,90.61h-.67v-2.8c0-.93-.37-1.39-1.12-1.39-.44,0-.78.17-1.02.5-.21.3-.32.68-.32,1.12v2.57h-.69v-4.65h.69v.83c.34-.65.86-.97,1.54-.97,1.06,0,1.59.62,1.59,1.85v2.94ZM181.96,90.61h-.69v-4.64h.69v4.64ZM182.11,84.66c0,.13-.05.25-.15.35-.1.1-.21.15-.35.15s-.26-.05-.36-.14c-.1-.1-.15-.21-.15-.35s.05-.25.15-.35c.1-.1.22-.15.36-.15s.25.05.35.15c.1.1.15.22.15.35Z"/>
  <rect class="st1" x="142.99" y="84.12" width="37.09" height="1.23"/>
</svg>